<?xml version="1.0" standalone="no"?>
<!DOCTYPE svg PUBLIC "-//W3C//DTD SVG 20010904//EN"
 "http://www.w3.org/TR/2001/REC-SVG-20010904/DTD/svg10.dtd">
<svg version="1.0" xmlns="http://www.w3.org/2000/svg"
 width="70.000000pt" height="70.000000pt" viewBox="0 0 70.000000 70.000000"
 preserveAspectRatio="xMidYMid meet">
<metadata>
Created by potrace 1.11, written by Peter Selinger 2001-2013
</metadata>
<g transform="translate(0.000000,70.000000) scale(0.100000,-0.100000)"
fill="#000000" stroke="none">
<path d="M170 510 c0 -16 -4 -31 -10 -31 -5 -1 -14 -3 -20 -4 -5 -1 -14 -3
-20 -4 -5 0 -10 -8 -10 -16 0 -10 10 -15 30 -15 27 0 30 -3 30 -30 0 -20 5
-30 15 -30 8 0 16 6 16 13 1 6 2 19 3 27 1 15 5 16 45 19 32 2 15 37 -17 37
-17 -1 -28 5 -28 14 -1 8 -2 23 -3 33 -2 31 -31 20 -31 -13z"/>
<path d="M354 474 c-53 -26 -92 -83 -89 -129 1 -11 2 -32 3 -47 4 -62 101
-133 169 -122 69 11 133 78 133 139 0 21 -4 26 -22 23 -12 -2 -22 -11 -24 -22
-8 -56 -83 -102 -135 -84 -62 21 -92 93 -63 149 19 37 36 49 85 57 34 6 45 12
47 28 2 17 -3 20 -35 22 -21 1 -52 -5 -69 -14z"/>
</g>
</svg>
